<?xml version="1.0" standalone="no"?>
<!DOCTYPE svg PUBLIC "-//W3C//DTD SVG 20010904//EN"
 "http://www.w3.org/TR/2001/REC-SVG-20010904/DTD/svg10.dtd">
<svg version="1.0" xmlns="http://www.w3.org/2000/svg"
 width="778.000000pt" height="778.000000pt" viewBox="0 0 778.000000 778.000000"
 preserveAspectRatio="xMidYMid meet">
<metadata>
Created by potrace 1.14, written by Peter Selinger 2001-2017
</metadata>
<g transform="translate(0.000000,778.000000) scale(0.100000,-0.100000)"
fill="#000000" stroke="none">
<path d="M3710 7758 c-9 -9 -45 -58 -80 -108 -36 -50 -91 -127 -124 -171 l-58
-81 1 -138 1 -137 -177 -1 -176 0 -124 -125 -124 -126 -1 -211 -1 -212 114
-114 115 -114 186 -2 186 -2 0 -196 0 -195 -67 -65 c-176 -168 -342 -483 -353
-671 -1 -22 -5 -42 -8 -44 -3 -2 -42 21 -85 52 -304 210 -666 369 -970 427
-44 9 -90 17 -102 20 -114 24 -466 25 -553 1 -8 -2 -33 -6 -55 -10 -204 -30
-484 -161 -646 -302 -62 -54 -180 -178 -207 -218 -15 -22 -30 -42 -33 -45 -16
-13 -94 -143 -143 -239 -124 -244 -180 -455 -180 -686 -1 -138 9 -223 38 -337
97 -384 359 -750 772 -1082 105 -84 356 -257 420 -290 l31 -15 0 -810 c0 -623
3 -817 13 -841 44 -106 673 -389 1100 -494 95 -24 190 -46 210 -50 14 -3 50
-10 80 -16 30 -6 66 -13 80 -15 26 -4 77 -12 120 -20 14 -2 45 -7 70 -10 25
-4 56 -8 70 -10 24 -3 57 -7 175 -20 252 -28 715 -33 990 -11 140 12 283 26
315 31 14 3 43 7 65 11 34 4 131 20 240 39 162 29 460 106 635 167 127 44 363
140 425 173 313 169 323 175 347 214 21 33 21 39 21 791 l0 758 76 43 c115 65
353 227 471 319 609 480 920 985 923 1500 1 200 -30 349 -111 540 -73 174
-254 403 -439 558 -18 15 -48 39 -65 54 -18 15 -39 28 -45 28 -7 0 -13 4 -13
8 0 12 -145 96 -252 147 -174 82 -364 134 -556 152 -136 13 -378 6 -472 -12
-14 -3 -63 -12 -110 -20 -204 -36 -457 -129 -675 -249 -49 -27 -123 -71 -162
-98 l-73 -48 -5 27 c-41 193 -173 431 -325 585 l-77 78 0 191 c0 132 3 192 11
194 6 2 72 6 147 8 l137 5 138 88 c77 48 146 93 154 100 13 11 15 50 15 243
l0 231 -28 24 c-15 13 -66 59 -113 102 -48 43 -95 84 -104 91 -11 7 -73 14
-166 17 -82 2 -159 5 -171 5 -21 1 -22 4 -20 141 l1 140 -140 176 c-76 98
-142 181 -145 186 -3 6 -82 10 -175 11 -147 2 -170 0 -184 -15z"/>
</g>
</svg>
